<?xml version="1.0" encoding="utf-8"?>
<!-- Generator: Adobe Illustrator 22.1.0, SVG Export Plug-In . SVG Version: 6.00 Build 0)  -->
<svg id="logo" version="1.1" id="Layer_1" xmlns="http://www.w3.org/2000/svg" xmlns:xlink="http://www.w3.org/1999/xlink" x="0px" y="0px"
	 viewBox="0 0 67.6 16.5" style="enable-background:new 0 0 67.6 16.5;" xml:space="preserve">
<g>
	<path d="M14.4,16.1h-0.2c-0.2,0-0.5,0-0.6-0.1c-0.2-0.1-0.4-0.3-0.6-0.6c-0.2-0.3-0.5-0.8-0.8-1.5c-0.3-0.7-0.7-1.6-1.2-2.8
		L7.4,2.4c0,0-0.1-0.1-0.2-0.1H7c-0.1,0-0.1,0-0.1,0.1L3,12.1c-0.2,0.4-0.4,0.9-0.6,1.4c-0.2,0.5-0.5,1-0.7,1.4
		c-0.4,0.8-0.9,1.2-1.4,1.2H0.1c-0.1,0-0.1,0-0.1,0.1c0,0.1,0,0.1,0.1,0.1c0.1,0,0.3,0,0.4,0c0.2,0,0.3,0,0.5,0s0.3,0,0.4,0
		c0.1,0,0.2,0,0.3,0c0.1,0,0.2,0,0.5,0c0.2,0,0.5,0,0.7,0s0.5,0,0.7,0c0.2,0,0.4,0,0.5,0c0.1,0,0.2,0,0.2,0c0,0,0-0.1,0-0.1
		c0-0.1,0-0.1-0.1-0.1c0,0-0.1,0-0.2,0c-0.1,0-0.2,0-0.3,0c-0.7,0-1.1-0.3-1.1-1c0-0.2,0-0.4,0.1-0.7c0-0.3,0.1-0.5,0.2-0.8
		s0.2-0.5,0.2-0.8c0.1-0.3,0.2-0.5,0.2-0.7l3.2-8c0,0,3.9,9.2,4.1,9.8c0.2,0.6,0.4,1.1,0.4,1.4s0,0.5-0.1,0.6
		c-0.1,0.1-0.3,0.1-0.5,0.1H9.9c-0.1,0-0.1,0-0.1,0.1c0,0.1,0.1,0.1,0.2,0.1c0.1,0,0.3,0,0.6,0c0.2,0,0.5,0,0.7,0c0.2,0,0.5,0,0.7,0
		c0.2,0,0.3,0,0.4,0s0.2,0,0.4,0s0.3,0,0.5,0l0.6,0c0.2,0,0.4,0,0.5,0c0.1,0,0.1,0,0.1-0.1C14.5,16.1,14.5,16.1,14.4,16.1z"/>
	<path d="M15.7,7.8c0-0.2-0.1-0.4-0.2-0.5c-0.1-0.1-0.2-0.1-0.4-0.1c-0.2,0-0.4,0-0.6,0.1c-0.1,0-0.1,0-0.1-0.1s0-0.1,0.1-0.1
		c0.5-0.1,1-0.2,1.3-0.4s0.8-0.3,1.1-0.5c0,0,0.1,0,0.2,0c0.1,0,0.2,0.1,0.2,0.1v6.3c0,0.6,0.1,1.1,0.2,1.6c0.1,0.4,0.3,0.7,0.5,1
		c0.2,0.3,0.5,0.4,0.8,0.5c0.3,0.1,0.6,0.2,0.9,0.2c0.6,0,1.2-0.1,1.6-0.4s0.9-0.8,1.4-1.4V8.7c0-0.4,0-0.8-0.1-1
		c0-0.2-0.1-0.4-0.2-0.5c-0.1-0.1-0.2-0.1-0.4-0.1c-0.2,0-0.4,0-0.6,0.1c-0.1,0-0.1,0-0.1-0.1s0-0.1,0.1-0.1c0.5-0.1,1-0.2,1.3-0.4
		s0.7-0.3,1.1-0.5c0,0,0.1,0,0.2,0c0.1,0,0.2,0.1,0.2,0.1v7.6c0,0.5,0,0.9,0,1.2c0,0.3,0.1,0.5,0.1,0.7c0.1,0.1,0.2,0.2,0.3,0.3
		s0.3,0.1,0.6,0.1c0.1,0,0.1,0,0.1,0.1s0,0.1-0.1,0.1c-0.6,0-1.1,0-1.6,0.1c-0.4,0.1-0.8,0.1-1,0.1c-0.1,0-0.1,0-0.1,0
		c0,0,0-0.1,0-0.2c0-0.1,0-0.3,0.1-0.6c0.1-0.4,0.1-0.8,0.1-1.4c-0.5,0.7-1.1,1.2-1.7,1.6c-0.6,0.4-1.3,0.6-2,0.6
		c-0.5,0-0.9-0.1-1.3-0.2s-0.7-0.3-1-0.7c-0.3-0.3-0.5-0.7-0.7-1.2c-0.2-0.5-0.3-1.2-0.3-2V8.7C15.7,8.3,15.7,8,15.7,7.8z"/>
	<path d="M26.7,7.7c0.2-0.4,0.5-0.7,0.9-0.9c0.4-0.2,0.8-0.4,1.2-0.5c0.4-0.1,0.9-0.2,1.3-0.2c0.4,0,0.8,0,1,0s0.6,0,0.8,0.1
		c0.2,0,0.5,0.1,0.7,0.1c0.2,0,0.5,0.1,0.8,0.1c0.1,0,0.1,0.1,0.1,0.2c0,0.2,0,0.4,0,0.7c0,0.3,0,0.7,0,1c0,0.4,0,0.7,0,1
		s0,0.6,0,0.8c0,0.1,0,0.1-0.1,0.1c-0.1,0-0.1,0-0.1-0.1c0-1.2-0.2-2.2-0.7-2.8c-0.5-0.7-1.3-1-2.5-1c-0.8,0-1.5,0.2-2,0.5
		C27.6,7,27.3,7.5,27.3,8c0,0.3,0.1,0.6,0.3,0.9c0.2,0.2,0.4,0.5,0.7,0.6c0.3,0.2,0.6,0.4,1,0.5c0.4,0.1,0.8,0.3,1.2,0.4
		c0.4,0.1,0.8,0.3,1.2,0.5c0.4,0.2,0.8,0.4,1.1,0.6c0.3,0.2,0.6,0.5,0.8,0.8s0.3,0.7,0.3,1.1c0,0.4-0.1,0.9-0.3,1.2s-0.4,0.7-0.8,1
		c-0.3,0.3-0.7,0.5-1.1,0.6c-0.4,0.2-0.9,0.2-1.4,0.2c-0.5,0-1,0-1.4-0.1s-0.7-0.1-1-0.2S27.3,16,27.1,16s-0.5-0.1-0.7-0.2
		c-0.1,0-0.1-0.1-0.1-0.3c0-0.1,0-0.2,0-0.3c0-0.1,0-0.3,0-0.5c0-0.2,0-0.6,0-1c0-0.4,0-1,0-1.7c0-0.1,0-0.1,0.1-0.1
		c0.1,0,0.1,0,0.1,0.1c0,0.7,0.1,1.4,0.2,1.9s0.3,1,0.6,1.4c0.3,0.4,0.7,0.7,1.2,0.8c0.5,0.2,1.1,0.3,1.8,0.3c0.5,0,0.9-0.1,1.2-0.2
		c0.3-0.1,0.6-0.2,0.8-0.4s0.4-0.4,0.4-0.6c0.1-0.2,0.1-0.5,0.1-0.8c0-0.3-0.1-0.6-0.3-0.9c-0.2-0.2-0.4-0.5-0.7-0.6s-0.6-0.4-1-0.5
		c-0.4-0.1-0.8-0.3-1.2-0.4c-0.4-0.1-0.8-0.3-1.2-0.4c-0.4-0.2-0.8-0.4-1.1-0.6c-0.3-0.2-0.6-0.5-0.8-0.8s-0.3-0.6-0.3-1
		C26.3,8.5,26.5,8.1,26.7,7.7z"/>
	<path d="M43.4,16.2c-0.1,0-0.2-0.1-0.4-0.2c-0.3-0.2-0.5-0.4-0.8-0.9c-0.3-0.4-0.7-1-1.1-1.8l-1.6-2.7l-2.1,2.1v3.3h1.2
		c0.1,0,0.1,0,0.1,0.1s0,0.1-0.1,0.1c0,0-0.1,0-0.3,0c-0.2,0-0.3,0-0.5,0c-0.2,0-0.4,0-0.5,0c-0.2,0-0.3,0-0.4,0s-0.2,0-0.4,0
		c-0.2,0-0.3,0-0.5,0s-0.4,0-0.6,0c-0.2,0-0.4,0-0.5,0c-0.1,0-0.1,0-0.1-0.1s0-0.1,0.1-0.1c0.2,0,0.4,0,0.5-0.1s0.2-0.1,0.3-0.3
		c0.1-0.2,0.1-0.4,0.1-0.7c0-0.3,0-0.7,0-1.2V2.7c0-0.4,0-0.8-0.1-1s-0.1-0.4-0.2-0.5C35.5,1.1,35.3,1,35.2,1c-0.2,0-0.4,0-0.6,0.1
		c-0.1,0-0.1,0-0.1-0.1s0-0.1,0.1-0.1c0.5-0.1,1-0.2,1.3-0.4C36.3,0.4,36.6,0.2,37,0c0,0,0.1,0,0.2,0c0.1,0,0.2,0.1,0.2,0.1v12.4
		l3.1-3.2c0.4-0.5,0.8-0.9,1-1.2c0.2-0.3,0.3-0.6,0.4-0.9c0-0.2,0-0.4-0.2-0.6c-0.1-0.1-0.4-0.2-0.7-0.2c-0.1,0-0.1,0-0.1-0.1
		s0-0.1,0.1-0.1c0.1,0,0.3,0,0.5,0c0.2,0,0.4,0,0.6,0s0.4,0,0.5,0c0.2,0,0.3,0,0.4,0s0.2,0,0.4,0c0.2,0,0.5,0,0.7,0
		c0.2,0,0.5,0,0.7,0s0.3,0,0.4,0c0.1,0,0.1,0,0.1,0.1s0,0.1-0.1,0.1c-0.6,0-1.3,0.2-2,0.7c-0.7,0.5-1.5,1.2-2.5,2.2l-0.3,0.3
		l1.9,3.1c0.4,0.6,0.8,1.2,1.1,1.6c0.3,0.4,0.6,0.8,0.9,1c0.3,0.3,0.5,0.4,0.7,0.5c0.2,0.1,0.4,0.2,0.6,0.2c0.1,0,0.1,0,0.1,0.1
		c0,0.1,0,0.1-0.1,0.1h-1.9C43.6,16.3,43.5,16.3,43.4,16.2z"/>
	<path d="M46.9,7.9c0-0.2-0.1-0.4-0.2-0.5c-0.1-0.1-0.2-0.1-0.4-0.1c-0.2,0-0.4,0-0.6,0.1c-0.1,0-0.1,0-0.1,0c0-0.1,0-0.1,0.1-0.1
		c0.5-0.1,1-0.3,1.3-0.5s0.8-0.4,1.2-0.7c0,0,0.1,0,0.2,0c0.1,0,0.2,0.1,0.2,0.1v7.9c0,0.4,0,0.8,0,1c0,0.3,0.1,0.5,0.1,0.6
		c0.1,0.1,0.2,0.2,0.4,0.3s0.4,0.1,0.7,0.1c0.1,0,0.1,0,0.1,0.1s0,0.1-0.1,0.1c-0.1,0-0.3,0-0.5,0c-0.2,0-0.4,0-0.6,0
		c-0.2,0-0.4,0-0.5,0c-0.2,0-0.3,0-0.3,0s-0.2,0-0.4,0c-0.2,0-0.3,0-0.5,0s-0.4,0-0.6,0c-0.2,0-0.4,0-0.5,0c-0.1,0-0.1,0-0.1-0.1
		s0-0.1,0.1-0.1c0.3,0,0.5,0,0.7-0.1s0.3-0.1,0.4-0.3c0.1-0.1,0.1-0.4,0.2-0.6c0-0.3,0-0.6,0-1V8.7C47,8.4,47,8.1,46.9,7.9z
		 M46.9,2.6c0.2-0.2,0.4-0.3,0.7-0.3c0.3,0,0.5,0.1,0.8,0.3s0.3,0.5,0.3,0.8s-0.1,0.5-0.3,0.7S48,4.4,47.7,4.4
		c-0.3,0-0.5-0.1-0.7-0.3s-0.3-0.4-0.3-0.7S46.7,2.8,46.9,2.6z"/>
	<path d="M50.4,16.2c0-0.1,0-0.1,0.1-0.1c0.2,0,0.4,0,0.5,0c0.1,0,0.2-0.1,0.3-0.2c0.1-0.1,0.1-0.4,0.1-0.7c0-0.3,0-0.7,0-1.2V8.7
		c0-0.3-0.1-0.6-0.3-0.8c-0.2-0.3-0.4-0.5-0.6-0.7c-0.1-0.1-0.1-0.1,0-0.1C50.7,7,51,6.9,51.3,6.8c0.3-0.2,0.5-0.3,0.7-0.5
		c0,0,0.1,0,0.1,0c0.2,0.2,0.4,0.5,0.5,0.8c0.2,0.4,0.3,0.8,0.3,1.2c0.5-0.7,1-1.2,1.6-1.6c0.6-0.4,1.2-0.6,2-0.6
		c0.3,0,0.6,0,0.9,0.1c0.3,0.1,0.6,0.2,0.9,0.4c0.3,0.2,0.5,0.4,0.7,0.7c0.2,0.3,0.4,0.7,0.5,1.1c0.5-0.7,1-1.3,1.6-1.7
		c0.6-0.4,1.2-0.6,2-0.6c0.4,0,0.9,0.1,1.3,0.2c0.4,0.1,0.8,0.3,1.1,0.7c0.3,0.3,0.6,0.7,0.7,1.3c0.2,0.5,0.3,1.2,0.3,2v5.1
		c0,0.2,0,0.3,0,0.4c0,0.1,0.1,0.2,0.1,0.2c0.1,0.1,0.2,0.1,0.3,0.1c0.1,0,0.3,0,0.6,0c0.1,0,0.1,0,0.1,0.1s0,0.1-0.1,0.1
		c0,0-0.1,0-0.3,0c-0.2,0-0.3,0-0.5,0s-0.4,0-0.6,0c-0.2,0-0.3,0-0.4,0s-0.2,0-0.4,0c-0.2,0-0.3,0-0.5,0s-0.4,0-0.6,0
		c-0.2,0-0.4,0-0.5,0c-0.1,0-0.1,0-0.1-0.1s0-0.1,0.1-0.1c0.3,0,0.6,0,0.8,0c0.2,0,0.3-0.1,0.4-0.2c0.1-0.1,0.1-0.4,0.2-0.6
		c0-0.3,0-0.7,0-1.2v-4c0-0.6-0.1-1.1-0.2-1.6c-0.1-0.4-0.3-0.8-0.6-1s-0.5-0.4-0.8-0.5c-0.3-0.1-0.6-0.2-0.9-0.2
		c-0.4,0-0.7,0-1,0.1S61,7.1,60.8,7.2c-0.2,0.2-0.4,0.4-0.6,0.6C60,8,59.8,8.3,59.6,8.5v6.7c0,0.2,0,0.3,0,0.4
		c0,0.1,0.1,0.2,0.2,0.2c0.1,0.1,0.2,0.1,0.4,0.1c0.2,0,0.4,0,0.6,0c0.1,0,0.1,0,0.1,0.1s0,0.1-0.1,0.1c0,0-0.1,0-0.3,0
		c-0.2,0-0.4,0-0.6,0c-0.2,0-0.4,0-0.6,0c-0.2,0-0.3,0-0.4,0s-0.2,0-0.4,0c-0.2,0-0.3,0-0.5,0c-0.2,0-0.4,0-0.6,0
		c-0.2,0-0.4,0-0.5,0c-0.1,0-0.1,0-0.1-0.1s0-0.1,0.1-0.1c0.3,0,0.5,0,0.7,0c0.2,0,0.3-0.1,0.4-0.2c0.1-0.1,0.1-0.4,0.1-0.6
		c0-0.3,0-0.7,0-1.2v-4c0-0.6-0.1-1.1-0.2-1.6c-0.1-0.4-0.3-0.8-0.5-1c-0.2-0.3-0.5-0.4-0.7-0.5c-0.3-0.1-0.6-0.2-0.9-0.2
		c-0.6,0-1.2,0.1-1.6,0.4s-0.9,0.8-1.3,1.4v7.6h1.2c0.1,0,0.1,0,0.1,0.1s0,0.1-0.1,0.1c0,0-0.1,0-0.3,0c-0.1,0-0.3,0-0.5,0
		c-0.2,0-0.3,0-0.5,0c-0.2,0-0.3,0-0.4,0s-0.2,0-0.4,0c-0.2,0-0.3,0-0.5,0s-0.4,0-0.6,0c-0.2,0-0.4,0-0.5,0
		C50.4,16.3,50.4,16.3,50.4,16.2z"/>
</g>
</svg>
